<svg id="visual" viewBox="0 0 900 675" width="900" height="675" xmlns="http://www.w3.org/2000/svg" xmlns:xlink="http://www.w3.org/1999/xlink" version="1.1"><rect x="0" y="0" width="900" height="675" fill="#EDE4D1"></rect><defs><linearGradient id="grad1_0" x1="25%" y1="100%" x2="100%" y2="0%"><stop offset="23.333333333333336%" stop-color="#276246" stop-opacity="1"></stop><stop offset="76.66666666666666%" stop-color="#276246" stop-opacity="1"></stop></linearGradient></defs><defs><linearGradient id="grad1_1" x1="25%" y1="100%" x2="100%" y2="0%"><stop offset="23.333333333333336%" stop-color="#276246" stop-opacity="1"></stop><stop offset="76.66666666666666%" stop-color="#92a07e" stop-opacity="1"></stop></linearGradient></defs><defs><linearGradient id="grad1_2" x1="25%" y1="100%" x2="100%" y2="0%"><stop offset="23.333333333333336%" stop-color="#ede4d1" stop-opacity="1"></stop><stop offset="76.66666666666666%" stop-color="#92a07e" stop-opacity="1"></stop></linearGradient></defs><defs><linearGradient id="grad2_0" x1="0%" y1="100%" x2="75%" y2="0%"><stop offset="23.333333333333336%" stop-color="#276246" stop-opacity="1"></stop><stop offset="76.66666666666666%" stop-color="#276246" stop-opacity="1"></stop></linearGradient></defs><defs><linearGradient id="grad2_1" x1="0%" y1="100%" x2="75%" y2="0%"><stop offset="23.333333333333336%" stop-color="#92a07e" stop-opacity="1"></stop><stop offset="76.66666666666666%" stop-color="#276246" stop-opacity="1"></stop></linearGradient></defs><defs><linearGradient id="grad2_2" x1="0%" y1="100%" x2="75%" y2="0%"><stop offset="23.333333333333336%" stop-color="#92a07e" stop-opacity="1"></stop><stop offset="76.66666666666666%" stop-color="#ede4d1" stop-opacity="1"></stop></linearGradient></defs><g transform="translate(900, 675)"><path d="M-534.4 0C-519.8 -70.8 -505.2 -141.6 -470.3 -194.8C-435.3 -247.9 -380 -283.4 -335.9 -335.9C-291.7 -388.3 -258.6 -457.8 -204.5 -493.7C-150.4 -529.6 -75.2 -532 0 -534.4L0 0Z" fill="#c2c1a5"></path><path d="M-356.2 0C-346.5 -47.2 -336.8 -94.4 -313.5 -129.9C-290.2 -165.3 -253.4 -188.9 -223.9 -223.9C-194.5 -258.9 -172.4 -305.2 -136.3 -329.1C-100.2 -353.1 -50.1 -354.7 0 -356.2L0 0Z" fill="#60815e"></path><path d="M-178.1 0C-173.3 -23.6 -168.4 -47.2 -156.8 -64.9C-145.1 -82.6 -126.7 -94.5 -112 -112C-97.2 -129.4 -86.2 -152.6 -68.2 -164.6C-50.1 -176.5 -25.1 -177.3 0 -178.1L0 0Z" fill="#276246"></path></g><g transform="translate(0, 0)"><path d="M534.4 0C533.5 76 532.5 152 493.7 204.5C454.8 257 378.1 285.9 322.4 322.4C266.8 359 232.4 403.2 182.2 439.8C131.9 476.4 66 505.4 0 534.4L0 0Z" fill="#c2c1a5"></path><path d="M356.3 0C355.6 50.7 355 101.4 329.1 136.3C303.2 171.3 252 190.6 215 215C177.9 239.3 154.9 268.8 121.4 293.2C88 317.6 44 336.9 0 356.3L0 0Z" fill="#60815e"></path><path d="M178.1 0C177.8 25.3 177.5 50.7 164.6 68.2C151.6 85.7 126 95.3 107.5 107.5C88.9 119.7 77.5 134.4 60.7 146.6C44 158.8 22 168.5 0 178.1L0 0Z" fill="#276246"></path></g></svg>